<svg xmlns="http://www.w3.org/2000/svg" viewBox="0 0 200 200" fill="none">
  <defs>
    <radialGradient id="sphereGradient" cx="30%" cy="30%" r="70%" fx="30%" fy="30%">
      <stop offset="0%" stop-color="#6366f1" />
      <stop offset="50%" stop-color="#4338ca" />
      <stop offset="100%" stop-color="#1e1b4b" />
    </radialGradient>
    <linearGradient id="orbitGradient" x1="0%" y1="100%" x2="100%" y2="0%">
      <stop offset="0%" stop-color="#ea580c" />
      <stop offset="50%" stop-color="#f59e0b" />
      <stop offset="100%" stop-color="#fbbf24" />
    </linearGradient>
  </defs>
  <circle cx="100" cy="100" r="60" fill="url(#sphereGradient)" />
  <path d="M 40 140 C 40 140, 80 180, 140 120 C 180 80, 170 40, 170 40 C 170 40, 160 70, 130 100 C 100 130, 50 135, 40 140 Z" fill="url(#orbitGradient)" opacity="0.9" />
  <path d="M 170 40 L 175 30 L 180 40 L 175 50 Z" fill="#fbbf24" />
  <path d="M 185 55 L 188 48 L 191 55 L 188 62 Z" fill="#f59e0b" />
  <path d="M 160 25 L 163 20 L 166 25 L 163 30 Z" fill="#fbbf24" />
  <path d="M 120 60 L 122 56 L 124 60 L 122 64 Z" fill="#fbbf24" opacity="0.8" />
</svg>
